<svg width="96" height="84" viewBox="0 0 96 84" fill="none" xmlns="http://www.w3.org/2000/svg">
<path d="M85.5 2.17502C84.4685 1.4243 83.2889 0.970128 82.0648 0.85243C80.8408 0.734732 79.6098 0.957112 78.48 1.50002L41.46 17.9025C40.5835 18.3038 39.6463 18.5101 38.7 18.51H15C13.0109 18.51 11.1032 19.399 9.6967 20.9813C8.29018 22.5636 7.5 24.7098 7.5 26.9475V27.6225H0V47.8725H7.5V48.75C7.547 50.9525 8.35788 53.0469 9.75934 54.5858C11.1608 56.1246 13.0417 56.9857 15 56.985L24 78.45C24.6094 79.8955 25.5689 81.1183 26.7682 81.9779C27.9675 82.8376 29.358 83.2993 30.78 83.31H34.56C36.5387 83.2922 38.431 82.3954 39.8246 80.815C41.2181 79.2346 42.0001 77.0986 42 74.8725V57.795L78.48 74.1975C79.3773 74.5992 80.3343 74.8054 81.3 74.805C82.7983 74.7778 84.2573 74.262 85.5 73.32C86.4869 72.5704 87.3009 71.5672 87.8747 70.3934C88.4486 69.2197 88.7657 67.9091 88.8 66.57V9.12752C88.7945 7.754 88.491 6.40276 87.9159 5.19115C87.3409 3.97953 86.5115 2.94418 85.5 2.17502ZM34.5 26.9475V48.75H15V26.9475H34.5ZM34.5 74.8725H30.72L23.34 56.985H34.5V74.8725ZM44.22 49.7625C43.5076 49.353 42.7648 49.0142 42 48.75V26.475C42.7575 26.2992 43.5002 26.0508 44.22 25.7325L81.3 9.12752V66.3675L44.22 49.7625ZM88.98 29.31V46.185C90.9691 46.185 92.8768 45.2961 94.2833 43.7137C95.6898 42.1314 96.48 39.9853 96.48 37.7475C96.48 35.5098 95.6898 33.3636 94.2833 31.7813C92.8768 30.199 90.9691 29.31 88.98 29.31Z" fill="white"/>
</svg>
