<svg width="73" height="66" viewBox="0 0 73 66" fill="none" xmlns="http://www.w3.org/2000/svg">
<path d="M43.25 25.8198C39.875 22.7431 30.8739 21.7198 30.8739 27.8731C30.8739 34.0264 43.25 30.9498 43.25 37.0998C43.25 43.2498 33.125 43.2531 29.75 39.1498M36.5 42.0064V46.3331M36.5 23.3764V19.6664M2.75 19.6664L35.5955 3.44644C35.8764 3.30794 36.186 3.23584 36.5 3.23584C36.8139 3.23584 37.1236 3.30794 37.4045 3.44644L70.25 19.6664" stroke="white" stroke-width="4.5" stroke-linecap="round" stroke-linejoin="round"/>
<path d="M63.5 29.6665V56.3332C63.5 58.1013 62.7888 59.797 61.523 61.0472C60.2571 62.2975 58.5402 62.9998 56.75 62.9998H16.25C14.4598 62.9998 12.7429 62.2975 11.477 61.0472C10.2112 59.797 9.5 58.1013 9.5 56.3332V29.6665" stroke="white" stroke-width="4.5" stroke-linecap="round" stroke-linejoin="round"/>
</svg>
