<svg width="79" height="89" viewBox="0 0 79 89" fill="none" xmlns="http://www.w3.org/2000/svg">
<path d="M39.5001 28.6073C59.6944 28.6073 76.0358 41.3216 76.0358 60.393V85.8216H2.96436V60.393C2.96436 41.3216 19.3058 28.6073 39.5001 28.6073ZM39.5001 28.6073V3.17871M2.96436 66.7501H76.0358M26.2144 66.7501V85.8216M52.7858 66.7501V85.8216" stroke="white" stroke-width="5" stroke-linecap="round" stroke-linejoin="round"/>
<path d="M26.2145 54.0359C28.0489 54.0359 29.5359 52.6128 29.5359 50.8573C29.5359 49.1018 28.0489 47.6787 26.2145 47.6787C24.3801 47.6787 22.8931 49.1018 22.8931 50.8573C22.8931 52.6128 24.3801 54.0359 26.2145 54.0359Z" stroke="white" stroke-width="5" stroke-linecap="round" stroke-linejoin="round"/>
<path d="M52.7858 54.0359C54.6202 54.0359 56.1072 52.6128 56.1072 50.8573C56.1072 49.1018 54.6202 47.6787 52.7858 47.6787C50.9514 47.6787 49.4644 49.1018 49.4644 50.8573C49.4644 52.6128 50.9514 54.0359 52.7858 54.0359Z" stroke="white" stroke-width="5" stroke-linecap="round" stroke-linejoin="round"/>
</svg>
